/* XPM */
static char * quitgame0_xpm[] = {
"200 50 34 1",
" 	c None",
".	c #000000",
"+	c #130000",
"@	c #310000",
"#	c #4B0000",
"$	c #5F0000",
"%	c #6F0000",
"&	c #790000",
"*	c #7F0000",
"=	c #410000",
"-	c #6A0000",
";	c #1D0000",
">	c #550000",
",	c #0E0000",
"'	c #500000",
")	c #5C0000",
"!	c #3E0000",
"~	c #260000",
"{	c #070000",
"]	c #010000",
"^	c #620000",
"/	c #320000",
"(	c #040000",
"_	c #5A0000",
":	c #380000",
"<	c #680000",
"[	c #1A0000",
"}	c #0D0000",
"|	c #540000",
"1	c #2A0000",
"2	c #460000",
"3	c #1B0000",
"4	c #700000",
"5	c #7E0000",
"..................+@#$%&********************************************************************************************************************************************************&%$#@+..................",
"...............+=-********************************************************************************************************************************************************************-=+...............",
".............;>**************************************************************************************************************************************************************************>;.............",
"...........,'******************************************************************************************************************************************************************************',...........",
"..........@&*******)!~+{......................................................................................................................................................]{+~!)********&@..........",
".........#******^/{.................................................................................................................................................................{/^*******#.........",
".......(_*****^~.......................................................................................................................................................................~^******_(.......",
"......($*****:...........................................................................................................................................................................:******$(......",
"......_****<[.............................................................................................................................................................................[<*****_......",
".....#****){...............................................................................................................................................................................{)*****#.....",
"....@****)].................................................................................................................................................................................])*****@....",
"...,&***<{...................................................................................................................................................................................{<****&,...",
"...'****[.....................................................................................................................................................................................[*****'...",
"..;****:.......................................................................................................................................................................................:*****;..",
"..>***^.........................................................................................................................................................................................^****>..",
".+****~........................................................................}|1..............................................................................................................~*****+.",
".=***^...............................................}2****|3..................|**...................}2^****^:...................................................................................^****=.",
".-***/..............................................1*^3..3|*|.................1*|..................2*^1..}:*|.................................................................................../****-.",
"+****{.............................................1*^......|*|.......................|............|*|......||...................................................................................{*****+",
"@***).............................................}4*}.......4*:.....................3*...........1*4.......||....................................................................................)****@",
"#***!.............................................:*^........:*^..1^*...32*1..}:|3..3^*111}.......^*:.............}24**^}...1|*.:^*^}.}2*41......24*4:............................................!****#",
"$***~.............................................^*2........3**}1***...***1..***1..|4*|||3......}**3............}4^3.1*|..1***4212*42^1:*4.....44}.:*2...........................................~****$",
"%***+.............................................**1.........**1..|*....1*1...1*1...|*..........1**.............1*|...^*....|*}...2*:...2*1...2*}...2*...........................................+****%",
"&***{.............................................**1.........**1..|*....1*1...1*1...|*..........1**.............}13...|*....|*....1*1...1*1...*|....1*1..........................................{****&",
"5***].............................................**1.........**1..|*....1*1...1*1...|*..........1**.....1*****1.....3:4*....|*....1*1...1*1..3*^||||^*1..........................................]****5",
"5***].............................................^*:........}**}..|*....1*1...1*1...|*..........}**3.......*|....}24^2^*....|*....1*1...1*1..1*2111111}..........................................]****5",
"&***{.............................................2*|........:*4...|*....1*1...1*1...|*...........4*:.......*|...1*|}..|*....|*....1*1...1*1..1*1.................................................{****&",
"%***+.............................................3**}.......^*:...|*....1*1...1*1...|*...........:*4.......*|...4^....|*....|*....1*1...1*1..}*|.................................................+****%",
"$***~..............................................|*|......:*4....|*}...1*1...1*1...|*............^*2......*|...*|....|*....|*....1*1...1*1...^*}.....}..........................................~****$",
"#***!...............................................|*|....:*4}....:*|..1|*1...1*1...|*2..}........}4*2}....*|...^*}..24*....|*....1*1...1*1...3*4}..}^1..........................................!****#",
"@***)................................................:4*||4*2......}4***:1***.*****..34**^3..........24*||^*4:...3**||3:**|1****1.****|.|****...14*||4:...........................................)****@",
"+****{.................................................3**1..........11................................3111.......}13.............................113............................................{*****+",
".-***/..................................................4*1....................................................................................................................................../****-.",
".=***^..................................................:*41..3}.................................................................................................................................^****=.",
".+****~..................................................:^***^3................................................................................................................................~*****+.",
"..>***^.........................................................................................................................................................................................^****>..",
"..;****:.......................................................................................................................................................................................:*****;..",
"...'****[.....................................................................................................................................................................................[*****'...",
"...,&***<{...................................................................................................................................................................................{<****&,...",
"....@****)].................................................................................................................................................................................])*****@....",
".....#****){...............................................................................................................................................................................{)*****#.....",
"......_****<[.............................................................................................................................................................................[<*****_......",
"......($*****:...........................................................................................................................................................................:******$(......",
".......(_*****^~.......................................................................................................................................................................~^******_(.......",
".........#******^/{.................................................................................................................................................................{/^*******#.........",
"..........@&*******)!~+{......................................................................................................................................................]{+~!)********&@..........",
"...........,'******************************************************************************************************************************************************************************',...........",
".............;>**************************************************************************************************************************************************************************>;.............",
"...............+=-********************************************************************************************************************************************************************-=+...............",
"..................+@#$%&5********************************************************************************************************************************************************%$#@+.................."};
