/* XPM */
static char * quitgame1_xpm[] = {
"200 50 36 1",
" 	c None",
".	c #000000",
"+	c #130000",
"@	c #310000",
"#	c #4B0000",
"$	c #5F0000",
"%	c #6F0000",
"&	c #790000",
"*	c #7F0000",
"=	c #410000",
"-	c #6A0000",
";	c #1D0000",
">	c #550000",
",	c #0E0000",
"'	c #500000",
")	c #7E0000",
"!	c #8D0000",
"~	c #A30000",
"{	c #BA0000",
"]	c #CD0000",
"^	c #D80000",
"/	c #D60000",
"(	c #7D0000",
"_	c #960000",
":	c #040000",
"<	c #5A0000",
"[	c #910000",
"}	c #7C0000",
"|	c #B10000",
"1	c #CE0000",
"2	c #9C0000",
"3	c #A60000",
"4	c #C40000",
"5	c #920000",
"6	c #B00000",
"7	c #890000",
"..................+@#$%&********************************************************************************************************************************************************&%$#@+..................",
"...............+=-********************************************************************************************************************************************************************-=+...............",
".............;>**************************************************************************************************************************************************************************>;.............",
"...........,'******************************************************************************************************************************************************************************',...........",
"..........@&*******)!~{]^^^^^^^^^^^^^^^^^^^^^^^^^^^^^^^^^^^^^^^^^^^^^^^^^^^^^^^^^^^^^^^^^^^^^^^^^^^^^^^^^^^^^^^^^^^^^^^^^^^^^^^^^^^^^^^^^^^^^^^^^^^^^^^^^^^^^^^^^^^^^^^^^^^^^^/]{~!)********&@..........",
".........#******(_]^^^^^^^^^^^^^^^^^^^^^^^^^^^^^^^^^^^^^^^^^^^^^^^^^^^^^^^^^^^^^^^^^^^^^^^^^^^^^^^^^^^^^^^^^^^^^^^^^^^^^^^^^^^^^^^^^^^^^^^^^^^^^^^^^^^^^^^^^^^^^^^^^^^^^^^^^^^^^^^^^]_(*******#.........",
".......:<*****(~^^^^^^^^^^^^^^^^^^^^^^^^^^^^^^^^^^^^^^^^^^^^^^^^^^^^^^^^^^^^^^^^^^^^^^^^^^^^^^^^^^^^^^^^^^^^^^^^^^^^^^^^^^^^^^^^^^^^^^^^^^^^^^^^^^^^^^^^^^^^^^^^^^^^^^^^^^^^^^^^^^^^^^^~(******<:.......",
"......:$*****[^^^^^^^^^^^^^^^^^^^^^^^^^^^^^^^^^^^^^^^^^^^^^^^^^^^^^^^^^^^^^^^^^^^^^^^^^^^^^^^^^^^^^^^^^^^^^^^^^^^^^^^^^^^^^^^^^^^^^^^^^^^^^^^^^^^^^^^^^^^^^^^^^^^^^^^^^^^^^^^^^^^^^^^^^^^[******$:......",
"......<****}|^^^^^^^^^^^^^^^^^^^^^^^^^^^^^^^^^^^^^^^^^^^^^^^^^^^^^^^^^^^^^^^^^^^^^^^^^^^^^^^^^^^^^^^^^^^^^^^^^^^^^^^^^^^^^^^^^^^^^^^^^^^^^^^^^^^^^^^^^^^^^^^^^^^^^^^^^^^^^^^^^^^^^^^^^^^^^|}*****<......",
".....#****)]^^^^^^^^^^^^^^^^^^^^^^^^^^^^^^^^^^^^^^^^^^^^^^^^^^^^^^^^^^^^^^^^^^^^^^^^^^^^^^^^^^^^^^^^^^^^^^^^^^^^^^^^^^^^^^^^^^^^^^^^^^^^^^^^^^^^^^^^^^^^^^^^^^^^^^^^^^^^^^^^^^^^^^^^^^^^^^^])*****#.....",
"....@****)/^^^^^^^^^^^^^^^^^^^^^^^^^^^^^^^^^^^^^^^^^^^^^^^^^^^^^^^^^^^^^^^^^^^^^^^^^^^^^^^^^^^^^^^^^^^^^^^^^^^^^^^^^^^^^^^^^^^^^^^^^^^^^^^^^^^^^^^^^^^^^^^^^^^^^^^^^^^^^^^^^^^^^^^^^^^^^^^^^/)*****@....",
"...,&***}]^^^^^^^^^^^^^^^^^^^^^^^^^^^^^^^^^^^^^^^^^^^^^^^^^^^^^^^^^^^^^^^^^^^^^^^^^^^^^^^^^^^^^^^^^^^^^^^^^^^^^^^^^^^^^^^^^^^^^^^^^^^^^^^^^^^^^^^^^^^^^^^^^^^^^^^^^^^^^^^^^^^^^^^^^^^^^^^^^^^]}****&,...",
"...'****|^^^^^^^^^^^^^^^^^^^^^^^^^^^^^^^^^^^^^^^^^^^^^^^^^^^^^^^^^^^^^^^^^^^^^^^^^^^^^^^^^^^^^^^^^^^^^^^^^^^^^^^^^^^^^^^^^^^^^^^^^^^^^^^^^^^^^^^^^^^^^^^^^^^^^^^^^^^^^^^^^^^^^^^^^^^^^^^^^^^^^|*****'...",
"..;****[^^^^^^^^^^^^^^^^^^^^^^^^^^^^^^^^^^^^^^^^^^^^^^^^^^^^^^^^^^^^^^^^^^^^^^^^^^^^^^^^^^^^^^^^^^^^^^^^^^^^^^^^^^^^^^^^^^^^^^^^^^^^^^^^^^^^^^^^^^^^^^^^^^^^^^^^^^^^^^^^^^^^^^^^^^^^^^^^^^^^^^^[*****;..",
"..>***(^^^^^^^^^^^^^^^^^^^^^^^^^^^^^^^^^^^^^^^^^^^^^^^^^^^^^^^^^^^^^^^^^^^^^^^^^^^^^^^^^^^^^^^^^^^^^^^^^^^^^^^^^^^^^^^^^^^^^^^^^^^^^^^^^^^^^^^^^^^^^^^^^^^^^^^^^^^^^^^^^^^^^^^^^^^^^^^^^^^^^^^^^(****>..",
".+****~^^^^^^^^^^^^^^^^^^^^^^^^^^^^^^^^^^^^^^^^^^^^^^^^^^^^^^^^^^^^^^^^^^^^^^^^^^^^^^^^^^^^^^^^^^^^^^^^^^^^^^^^^^^^^^^^^^^^^^^^^^^^^^^^^^^^^^^^^^^^^^^^^^^^^^^^^^^^^^^^^^^^^^^^^^^^^^^^^^^^^^^^^~*****+.",
".=***(^^^^^^^^^^^^^^^^^^^^^^^^^^^^^^^^^^^^^^^^^^^^^^^^^^^^^^^^^^^^^^^^^^^^^^^^12{^^^^^^^^^^^^^^^^^^^^^^^^^^^^^^^^^^^^^^^^^^^^^^^^^^^^^^^^^^^^^^^^^^^^^^^^^^^^^^^^^^^^^^^^^^^^^^^^^^^^^^^^^^^^^^^^(****=.",
".-***_^^^^^^^^^^^^^^^^^^^^^^^^^^^^^^^^^^^^^^^^^^^^^^13****24^^^^^^^^^^^^^^^^^^2**^^^^^^^^^^^^^^^^^^^135****56^^^^^^^^^^^^^^^^^^^^^^^^^^^^^^^^^^^^^^^^^^^^^^^^^^^^^^^^^^^^^^^^^^^^^^^^^^^^^^^^^^^^_****-.",
"+****]^^^^^^^^^^^^^^^^^^^^^^^^^^^^^^^^^^^^^^^^^^^^^{*54^^42*2^^^^^^^^^^^^^^^^^{*2^^^^^^^^^^^^^^^^^^3*5{^^16*2^^^^^^^^^^^^^^^^^^^^^^^^^^^^^^^^^^^^^^^^^^^^^^^^^^^^^^^^^^^^^^^^^^^^^^^^^^^^^^^^^^^^]*****+",
"@***)^^^^^^^^^^^^^^^^^^^^^^^^^^^^^^^^^^^^^^^^^^^^^{*5^^^^^^2*2^^^^^^^^^^^^^^^^^^^^^^^2^^^^^^^^^^^^2*2^^^^^^22^^^^^^^^^^^^^^^^^^^^^^^^^^^^^^^^^^^^^^^^^^^^^^^^^^^^^^^^^^^^^^^^^^^^^^^^^^^^^^^^^^^^^)****@",
"#***!^^^^^^^^^^^^^^^^^^^^^^^^^^^^^^^^^^^^^^^^^^^^17*1^^^^^^^7*6^^^^^^^^^^^^^^^^^^^^^4*^^^^^^^^^^^{*7^^^^^^^22^^^^^^^^^^^^^^^^^^^^^^^^^^^^^^^^^^^^^^^^^^^^^^^^^^^^^^^^^^^^^^^^^^^^^^^^^^^^^^^^^^^^^!****#",
"$***~^^^^^^^^^^^^^^^^^^^^^^^^^^^^^^^^^^^^^^^^^^^^6*5^^^^^^^^6*5^^{5*^^^43*{^^1624^^45*{{{1^^^^^^^5*6^^^^^^^^^^^^^137**51^^^{2*^65*51^13*7{^^^^^^37*76^^^^^^^^^^^^^^^^^^^^^^^^^^^^^^^^^^^^^^^^^^^^^~****$",
"%***{^^^^^^^^^^^^^^^^^^^^^^^^^^^^^^^^^^^^^^^^^^^^5*3^^^^^^^^4**1{***^^^***{^^***{^^27*2224^^^^^^1**4^^^^^^^^^^^^1754^{*2^^{***73{3*735{6*7^^^^^771^6*3^^^^^^^^^^^^^^^^^^^^^^^^^^^^^^^^^^^^^^^^^^^^{****%",
"&***]^^^^^^^^^^^^^^^^^^^^^^^^^^^^^^^^^^^^^^^^^^^^**{^^^^^^^^^**{^^2*^^^^{*{^^^{*{^^^2*^^^^^^^^^^{**^^^^^^^^^^^^^{*2^^^5*^^^^2*1^^^3*6^^^3*{^^^3*1^^^3*^^^^^^^^^^^^^^^^^^^^^^^^^^^^^^^^^^^^^^^^^^^^]****&",
")***/^^^^^^^^^^^^^^^^^^^^^^^^^^^^^^^^^^^^^^^^^^^^**{^^^^^^^^^**{^^2*^^^^{*{^^^{*{^^^2*^^^^^^^^^^{**^^^^^^^^^^^^^1{4^^^2*^^^^2*^^^^{*{^^^{*{^^^*2^^^^{*{^^^^^^^^^^^^^^^^^^^^^^^^^^^^^^^^^^^^^^^^^^^/****)",
")***/^^^^^^^^^^^^^^^^^^^^^^^^^^^^^^^^^^^^^^^^^^^^**{^^^^^^^^^**{^^2*^^^^{*{^^^{*{^^^2*^^^^^^^^^^{**^^^^^{*****{^^^^^467*^^^^2*^^^^{*{^^^{*{^^4*522225*{^^^^^^^^^^^^^^^^^^^^^^^^^^^^^^^^^^^^^^^^^^^/****)",
"&***]^^^^^^^^^^^^^^^^^^^^^^^^^^^^^^^^^^^^^^^^^^^^5*6^^^^^^^^1**1^^2*^^^^{*{^^^{*{^^^2*^^^^^^^^^^1**4^^^^^^^*2^^^^137535*^^^^2*^^^^{*{^^^{*{^^{*3{{{{{{1^^^^^^^^^^^^^^^^^^^^^^^^^^^^^^^^^^^^^^^^^^^]****&",
"%***{^^^^^^^^^^^^^^^^^^^^^^^^^^^^^^^^^^^^^^^^^^^^3*2^^^^^^^^6*7^^^2*^^^^{*{^^^{*{^^^2*^^^^^^^^^^^7*6^^^^^^^*2^^^{*21^^2*^^^^2*^^^^{*{^^^{*{^^{*{^^^^^^^^^^^^^^^^^^^^^^^^^^^^^^^^^^^^^^^^^^^^^^^^^^{****%",
"$***~^^^^^^^^^^^^^^^^^^^^^^^^^^^^^^^^^^^^^^^^^^^^4**1^^^^^^^5*6^^^2*^^^^{*{^^^{*{^^^2*^^^^^^^^^^^6*7^^^^^^^*2^^^75^^^^2*^^^^2*^^^^{*{^^^{*{^^1*2^^^^^^^^^^^^^^^^^^^^^^^^^^^^^^^^^^^^^^^^^^^^^^^^^^~****$",
"#***!^^^^^^^^^^^^^^^^^^^^^^^^^^^^^^^^^^^^^^^^^^^^^2*2^^^^^^6*7^^^^2*1^^^{*{^^^{*{^^^2*^^^^^^^^^^^^5*3^^^^^^*2^^^*2^^^^2*^^^^2*^^^^{*{^^^{*{^^^5*1^^^^^1^^^^^^^^^^^^^^^^^^^^^^^^^^^^^^^^^^^^^^^^^^^!****#",
"@***)^^^^^^^^^^^^^^^^^^^^^^^^^^^^^^^^^^^^^^^^^^^^^^2*2^^^^6*71^^^^6*2^^{2*{^^^{*{^^^2*3^^1^^^^^^^^17*31^^^^*2^^^5*1^^37*^^^^2*^^^^{*{^^^{*{^^^4*71^^15{^^^^^^^^^^^^^^^^^^^^^^^^^^^^^^^^^^^^^^^^^^^)****@",
"+****]^^^^^^^^^^^^^^^^^^^^^^^^^^^^^^^^^^^^^^^^^^^^^^67*227*3^^^^^^17***6{***^*****^^47**54^^^^^^^^^^37*225*76^^^4**2246**2{****{^****2^2****^^^{7*2276^^^^^^^^^^^^^^^^^^^^^^^^^^^^^^^^^^^^^^^^^^^]*****+",
".-***_^^^^^^^^^^^^^^^^^^^^^^^^^^^^^^^^^^^^^^^^^^^^^^^^4**{^^^^^^^^^^{{^^^^^^^^^^^^^^^^^^^^^^^^^^^^^^^^4{{{^^^^^^^1{4^^^^^^^^^^^^^^^^^^^^^^^^^^^^^{{4^^^^^^^^^^^^^^^^^^^^^^^^^^^^^^^^^^^^^^^^^^^^^_****-.",
".=***(^^^^^^^^^^^^^^^^^^^^^^^^^^^^^^^^^^^^^^^^^^^^^^^^^7*{^^^^^^^^^^^^^^^^^^^^^^^^^^^^^^^^^^^^^^^^^^^^^^^^^^^^^^^^^^^^^^^^^^^^^^^^^^^^^^^^^^^^^^^^^^^^^^^^^^^^^^^^^^^^^^^^^^^^^^^^^^^^^^^^^^^^^^^(****=.",
".+****~^^^^^^^^^^^^^^^^^^^^^^^^^^^^^^^^^^^^^^^^^^^^^^^^6*7{^^41^^^^^^^^^^^^^^^^^^^^^^^^^^^^^^^^^^^^^^^^^^^^^^^^^^^^^^^^^^^^^^^^^^^^^^^^^^^^^^^^^^^^^^^^^^^^^^^^^^^^^^^^^^^^^^^^^^^^^^^^^^^^^^^^^~*****+.",
"..>***(^^^^^^^^^^^^^^^^^^^^^^^^^^^^^^^^^^^^^^^^^^^^^^^^^65***54^^^^^^^^^^^^^^^^^^^^^^^^^^^^^^^^^^^^^^^^^^^^^^^^^^^^^^^^^^^^^^^^^^^^^^^^^^^^^^^^^^^^^^^^^^^^^^^^^^^^^^^^^^^^^^^^^^^^^^^^^^^^^^^^^(****>..",
"..;****[^^^^^^^^^^^^^^^^^^^^^^^^^^^^^^^^^^^^^^^^^^^^^^^^^^^^^^^^^^^^^^^^^^^^^^^^^^^^^^^^^^^^^^^^^^^^^^^^^^^^^^^^^^^^^^^^^^^^^^^^^^^^^^^^^^^^^^^^^^^^^^^^^^^^^^^^^^^^^^^^^^^^^^^^^^^^^^^^^^^^^^^[*****;..",
"...'****|^^^^^^^^^^^^^^^^^^^^^^^^^^^^^^^^^^^^^^^^^^^^^^^^^^^^^^^^^^^^^^^^^^^^^^^^^^^^^^^^^^^^^^^^^^^^^^^^^^^^^^^^^^^^^^^^^^^^^^^^^^^^^^^^^^^^^^^^^^^^^^^^^^^^^^^^^^^^^^^^^^^^^^^^^^^^^^^^^^^^^|*****'...",
"...,&***}]^^^^^^^^^^^^^^^^^^^^^^^^^^^^^^^^^^^^^^^^^^^^^^^^^^^^^^^^^^^^^^^^^^^^^^^^^^^^^^^^^^^^^^^^^^^^^^^^^^^^^^^^^^^^^^^^^^^^^^^^^^^^^^^^^^^^^^^^^^^^^^^^^^^^^^^^^^^^^^^^^^^^^^^^^^^^^^^^^^^]}****&,...",
"....@****)/^^^^^^^^^^^^^^^^^^^^^^^^^^^^^^^^^^^^^^^^^^^^^^^^^^^^^^^^^^^^^^^^^^^^^^^^^^^^^^^^^^^^^^^^^^^^^^^^^^^^^^^^^^^^^^^^^^^^^^^^^^^^^^^^^^^^^^^^^^^^^^^^^^^^^^^^^^^^^^^^^^^^^^^^^^^^^^^^^/)*****@....",
".....#****)]^^^^^^^^^^^^^^^^^^^^^^^^^^^^^^^^^^^^^^^^^^^^^^^^^^^^^^^^^^^^^^^^^^^^^^^^^^^^^^^^^^^^^^^^^^^^^^^^^^^^^^^^^^^^^^^^^^^^^^^^^^^^^^^^^^^^^^^^^^^^^^^^^^^^^^^^^^^^^^^^^^^^^^^^^^^^^^^])*****#.....",
"......<****}|^^^^^^^^^^^^^^^^^^^^^^^^^^^^^^^^^^^^^^^^^^^^^^^^^^^^^^^^^^^^^^^^^^^^^^^^^^^^^^^^^^^^^^^^^^^^^^^^^^^^^^^^^^^^^^^^^^^^^^^^^^^^^^^^^^^^^^^^^^^^^^^^^^^^^^^^^^^^^^^^^^^^^^^^^^^^^|}*****<......",
"......:$*****[^^^^^^^^^^^^^^^^^^^^^^^^^^^^^^^^^^^^^^^^^^^^^^^^^^^^^^^^^^^^^^^^^^^^^^^^^^^^^^^^^^^^^^^^^^^^^^^^^^^^^^^^^^^^^^^^^^^^^^^^^^^^^^^^^^^^^^^^^^^^^^^^^^^^^^^^^^^^^^^^^^^^^^^^^^^[******$:......",
".......:<*****(~^^^^^^^^^^^^^^^^^^^^^^^^^^^^^^^^^^^^^^^^^^^^^^^^^^^^^^^^^^^^^^^^^^^^^^^^^^^^^^^^^^^^^^^^^^^^^^^^^^^^^^^^^^^^^^^^^^^^^^^^^^^^^^^^^^^^^^^^^^^^^^^^^^^^^^^^^^^^^^^^^^^^^^^~(******<:.......",
".........#******(_]^^^^^^^^^^^^^^^^^^^^^^^^^^^^^^^^^^^^^^^^^^^^^^^^^^^^^^^^^^^^^^^^^^^^^^^^^^^^^^^^^^^^^^^^^^^^^^^^^^^^^^^^^^^^^^^^^^^^^^^^^^^^^^^^^^^^^^^^^^^^^^^^^^^^^^^^^^^^^^^^^]_(*******#.........",
"..........@&*******)!~{]^^^^^^^^^^^^^^^^^^^^^^^^^^^^^^^^^^^^^^^^^^^^^^^^^^^^^^^^^^^^^^^^^^^^^^^^^^^^^^^^^^^^^^^^^^^^^^^^^^^^^^^^^^^^^^^^^^^^^^^^^^^^^^^^^^^^^^^^^^^^^^^^^^^^^^/]{~!)********&@..........",
"...........,'******************************************************************************************************************************************************************************',...........",
".............;>**************************************************************************************************************************************************************************>;.............",
"...............+=-********************************************************************************************************************************************************************-=+...............",
"..................+@#$%&)********************************************************************************************************************************************************%$#@+.................."};
